<?xml version="1.0" standalone="no"?>
<!DOCTYPE svg PUBLIC "-//W3C//DTD SVG 20010904//EN"
 "http://www.w3.org/TR/2001/REC-SVG-20010904/DTD/svg10.dtd">
<svg version="1.0" xmlns="http://www.w3.org/2000/svg"
 width="1920.000000pt" height="750.000000pt" viewBox="0 0 1920.000000 750.000000"
 preserveAspectRatio="xMidYMid meet">
    <linearGradient id="grad1" x1="0%" y1="0%" x2="0%" y2="100%">
        <stop offset="0%" style="stop-color:rgb(29, 108, 182);stop-opacity:1" />
        <stop offset="95%" style="stop-color:rgb(35, 35, 35);stop-opacity:1" />
    </linearGradient>
    <g transform="translate(0.000000,750.000000) scale(0.100000,-0.100000)"
    fill="url(#grad1)" stroke="none">
        <path d="M0 6540 l0 -960 21 18 c11 9 31 37 44 62 13 25 47 74 75 110 27 36
        84 115 126 175 124 178 201 272 339 414 609 625 1507 977 2765 1083 209 18
        1166 18 1385 0 1058 -84 1937 -229 3080 -508 149 -36 297 -70 330 -76 33 -5
        119 -21 190 -34 230 -43 345 -55 590 -61 532 -13 963 66 1190 218 128 86 193
        207 202 374 3 53 0 101 -6 118 l-11 27 -5160 0 -5160 0 0 -960z"/>
        <path d="M10235 6489 c-227 -11 -343 -31 -540 -95 -732 -238 -1188 -692 -1440
        -1435 -31 -92 -45 -156 -100 -469 -45 -255 -60 -587 -34 -764 6 -39 15 -159
        19 -266 5 -107 12 -243 16 -301 7 -104 -6 -333 -27 -474 -17 -110 -107 -502
        -136 -589 -36 -109 -99 -253 -186 -420 -262 -505 -574 -838 -1124 -1200 -209
        -137 -335 -203 -628 -324 -250 -104 -329 -132 -377 -132 -15 0 -28 -4 -28 -10
        0 -7 2265 -10 6775 -10 l6775 0 0 1451 c0 1378 -1 1451 -17 1446 -10 -3 -74
        -30 -143 -60 -284 -123 -683 -252 -830 -268 -52 -5 -131 -17 -175 -25 -319
        -57 -577 -35 -1005 87 -248 71 -593 250 -938 485 -216 147 -830 614 -942 715
        -58 53 -168 145 -245 204 -217 168 -311 245 -730 595 -844 706 -1001 821
        -1580 1165 -417 248 -631 349 -1020 482 -305 103 -457 143 -615 159 -80 8
        -179 21 -220 30 -41 8 -122 17 -180 20 -58 3 -121 6 -140 7 -19 1 -102 -1
        -185 -4z"/>
    </g>
</svg>
